<svg width="375" height="306" viewBox="0 0 375 306" fill="none" xmlns="http://www.w3.org/2000/svg">
<path opacity="0.5" d="M97.9487 181.241C117.307 181.241 133 165.548 133 146.19C133 126.832 117.307 111.139 97.9487 111.139C78.5904 111.139 62.8975 126.832 62.8975 146.19C62.8975 165.548 78.5904 181.241 97.9487 181.241Z" fill="#68D49A"/>
<path d="M112.404 133.571C112.404 125.586 105.925 119.116 97.9403 119.116C89.9553 119.116 83.4763 125.586 83.468 133.58C81.0353 133.745 79.1156 135.764 79.1156 138.238C79.1156 140.712 81.2091 142.914 83.7908 142.914C84.7175 142.914 85.5781 142.64 86.3062 142.177C88.0936 144.593 90.609 146.447 93.5465 147.374V157.336H102.351V147.365C105.288 146.422 107.812 144.56 109.599 142.127C110.344 142.624 111.238 142.914 112.198 142.914C114.779 142.914 116.873 140.82 116.873 138.238C116.873 135.657 114.887 133.679 112.404 133.571Z" fill="#F4EFD5"/>
<path d="M97.9157 144.23C97.8577 144.23 97.8081 144.23 97.7502 144.23C95.6567 144.172 93.9852 143.063 93.3894 141.334C93.2488 140.92 93.4639 140.465 93.8777 140.324C94.2914 140.183 94.7465 140.399 94.8872 140.812C95.3423 142.12 96.6827 142.616 97.7915 142.641C99.0576 142.674 100.58 142.111 101.126 140.771C101.292 140.365 101.755 140.167 102.161 140.332C102.566 140.498 102.765 140.961 102.599 141.367C101.887 143.113 100.059 144.23 97.9239 144.23H97.9157Z" fill="#42C87F"/>
<path d="M102.359 153.38C102.359 153.38 102.069 157.319 97.99 157.336C93.5465 157.336 93.5631 153.248 93.5631 153.248C85.2554 155.515 77.1131 164.477 75.2183 172.875C81.3415 178.097 89.2686 181.249 97.9403 181.249C106.612 181.249 114.548 178.088 120.671 172.867C117.493 163.327 111.279 156.401 102.359 153.38Z" fill="#7FE9B0"/>
<path opacity="0.7" d="M102.359 153.38C102.359 153.38 102.069 157.319 97.99 157.336C93.5465 157.336 93.5631 153.248 93.5631 153.248C85.2554 155.515 77.1131 164.477 75.2183 172.875C81.3415 178.097 89.2686 181.249 97.9403 181.249C106.612 181.249 114.548 178.088 120.671 172.867C117.493 163.327 111.279 156.401 102.359 153.38Z" fill="url(#paint0_linear_2556_18261)"/>
<path d="M83.5426 134.961C83.5426 134.961 88.3502 134.505 93.497 130.194C93.497 130.194 92.3551 132.139 92.1234 133.711C99.4382 133.653 104.403 128.539 104.345 128.564C105.206 132.205 106.621 135.35 111.436 138.825C113.497 136.185 117.634 120.869 100.621 117.03C93.8032 115.912 80.8699 119.115 83.5344 134.961H83.5426Z" fill="#42C87F"/>
<path d="M105.586 137.757C105.305 137.757 105.04 137.583 104.941 137.302C104.659 136.499 103.973 136.003 103.112 135.978C102.384 135.978 101.457 136.309 101.035 137.335C100.894 137.682 100.497 137.848 100.141 137.707C99.7939 137.567 99.6284 137.169 99.7691 136.814C100.332 135.432 101.664 134.596 103.145 134.613C104.577 134.654 105.76 135.506 106.223 136.847C106.347 137.202 106.157 137.591 105.801 137.716C105.727 137.74 105.652 137.757 105.578 137.757H105.586Z" fill="#42C87F"/>
<path d="M95.4913 137.758C95.21 137.758 94.9452 137.584 94.8459 137.302C94.5645 136.5 93.8777 136.003 93.0172 135.979C92.289 135.979 91.3623 136.31 90.9403 137.336C90.7996 137.683 90.4024 137.849 90.0466 137.708C89.6991 137.567 89.5336 137.17 89.6742 136.814C90.2369 135.432 91.5526 134.58 93.0503 134.613C94.4818 134.655 95.6651 135.507 96.1284 136.847C96.2526 137.203 96.0622 137.592 95.7064 137.716C95.632 137.741 95.5575 137.758 95.483 137.758H95.4913Z" fill="#42C87F"/>
<path d="M16.5109 170.056C29.6896 170.056 40.3729 159.373 40.3729 146.194C40.3729 133.015 29.6896 122.332 16.5109 122.332C3.33231 122.332 -7.35107 133.015 -7.35107 146.194C-7.35107 159.373 3.33231 170.056 16.5109 170.056Z" stroke="#42C87F" stroke-width="7"/>
<path d="M8.89761 147.718C10.5801 147.718 11.9466 146.352 11.9466 144.669C11.9466 142.987 10.5801 141.62 8.89761 141.62C7.2151 141.62 5.84863 142.987 5.84863 144.669C5.84863 146.352 7.2151 147.718 8.89761 147.718V147.718Z" stroke="#42C87F" stroke-width="7"/>
<path d="M15.9998 155.843C17.6823 155.843 19.0488 154.477 19.0488 152.794C19.0488 151.112 17.6823 149.745 15.9998 149.745C14.3173 149.745 12.9508 151.112 12.9508 152.794C12.9508 154.477 14.3173 155.843 15.9998 155.843Z" stroke="#42C87F" stroke-width="7"/>
<path d="M34.34 152.831C28.0189 153.788 19.9782 152.691 16.5109 145.747C12.4487 137.623 15.6092 125.38 21.5863 122.843C25.0164 123.698 29.8967 125.278 34.3865 130.038C42.1205 131.915 49.8173 142.382 49.5013 151.455C49.5013 151.585 49.5106 151.715 49.5106 151.845C49.5106 156.047 46.099 159.458 41.8974 159.458C38.0304 159.458 34.8327 156.577 34.3493 152.831H34.34Z" stroke="#42C87F" stroke-width="7"/>
<path d="M34.34 152.831C28.0189 153.788 19.9782 152.691 16.5109 145.747C12.4487 137.623 15.6092 125.38 21.5863 122.843C25.0164 123.698 29.8967 125.278 34.3865 130.038C42.1205 131.915 49.8173 142.382 49.5013 151.455C49.5013 151.585 49.5106 151.715 49.5106 151.845C49.5106 156.047 46.099 159.458 41.8974 159.458C38.0304 159.458 34.8327 156.577 34.3493 152.831H34.34Z" stroke="#42C87F" stroke-width="7"/>
<path d="M-16.4794 151.446C-16.4794 151.576 -16.4887 151.706 -16.4887 151.836C-16.4887 156.038 -13.0772 159.449 -8.87552 159.449C-4.67387 159.449 -1.26236 156.038 -1.26236 151.836C-1.26236 150.126 -1.8294 148.536 -2.78685 147.263C-5.19443 138.887 -3.36318 134.751 -1.77362 131.181C-1.597 130.781 -1.42039 130.391 -1.26236 130.01C-9.03355 131.804 -16.8047 142.336 -16.4794 151.446Z" stroke="#42C87F" stroke-width="7"/>
<path d="M-16.4794 151.446C-16.4794 151.576 -16.4887 151.706 -16.4887 151.836C-16.4887 156.038 -13.0772 159.449 -8.87552 159.449C-4.67387 159.449 -1.26236 156.038 -1.26236 151.836C-1.26236 150.126 -1.8294 148.536 -2.78685 147.263C-5.19443 138.887 -3.36318 134.751 -1.77362 131.181C-1.597 130.781 -1.42039 130.391 -1.26236 130.01C-9.03355 131.804 -16.8047 142.336 -16.4794 151.446Z" stroke="#42C87F" stroke-width="7"/>
<path d="M24.1242 147.718C25.8067 147.718 27.1732 146.352 27.1732 144.669C27.1732 142.987 25.8067 141.62 24.1242 141.62C22.4417 141.62 21.0752 142.987 21.0752 144.669C21.0752 146.352 22.4417 147.718 24.1242 147.718Z" stroke="#42C87F" stroke-width="7"/>
<path d="M16.5109 170.056C29.6896 170.056 40.3729 159.373 40.3729 146.194C40.3729 133.015 29.6896 122.332 16.5109 122.332C3.33231 122.332 -7.35107 133.015 -7.35107 146.194C-7.35107 159.373 3.33231 170.056 16.5109 170.056Z" fill="white"/>
<path d="M8.89761 147.718C10.5801 147.718 11.9466 146.352 11.9466 144.669C11.9466 142.987 10.5801 141.62 8.89761 141.62C7.2151 141.62 5.84863 142.987 5.84863 144.669C5.84863 146.352 7.2151 147.718 8.89761 147.718Z" fill="#42C87F"/>
<path d="M15.9998 155.843C17.6823 155.843 19.0488 154.477 19.0488 152.794C19.0488 151.112 17.6823 149.745 15.9998 149.745C14.3173 149.745 12.9508 151.112 12.9508 152.794C12.9508 154.477 14.3173 155.843 15.9998 155.843Z" fill="#42C87F"/>
<path fill-rule="evenodd" clip-rule="evenodd" d="M34.34 152.831C28.0189 153.788 19.9782 152.691 16.5109 145.747C12.4487 137.623 15.6092 125.38 21.5863 122.843C25.0164 123.698 29.8967 125.278 34.3865 130.038C42.1205 131.915 49.8173 142.382 49.5013 151.455C49.5013 151.585 49.5106 151.715 49.5106 151.845C49.5106 156.047 46.099 159.458 41.8974 159.458C38.0304 159.458 34.8327 156.577 34.3493 152.831H34.34Z" fill="#EEEED4"/>
<path fill-rule="evenodd" clip-rule="evenodd" d="M34.34 152.831C28.0189 153.788 19.9782 152.691 16.5109 145.747C12.4487 137.623 15.6092 125.38 21.5863 122.843C25.0164 123.698 29.8967 125.278 34.3865 130.038C42.1205 131.915 49.8173 142.382 49.5013 151.455C49.5013 151.585 49.5106 151.715 49.5106 151.845C49.5106 156.047 46.099 159.458 41.8974 159.458C38.0304 159.458 34.8327 156.577 34.3493 152.831H34.34Z" fill="url(#paint1_linear_2556_18261)"/>
<path d="M24.1242 147.718C25.8067 147.718 27.1732 146.352 27.1732 144.669C27.1732 142.987 25.8067 141.62 24.1242 141.62C22.4417 141.62 21.0752 142.987 21.0752 144.669C21.0752 146.352 22.4417 147.718 24.1242 147.718Z" fill="#42C87F"/>
<path opacity="0.8" d="M181.194 181.388C200.631 181.388 216.388 165.631 216.388 146.194C216.388 126.757 200.631 111 181.194 111C161.757 111 146 126.757 146 146.194C146 165.631 161.757 181.388 181.194 181.388Z" fill="#42C87F"/>
<path fill-rule="evenodd" clip-rule="evenodd" d="M201.977 129.27C202.219 128.063 201.064 127.045 199.897 127.439L186.432 131.979C186.308 132.021 186.195 132.075 186.091 132.139C184.68 131.8 183.206 131.621 181.691 131.621C180.014 131.621 178.389 131.841 176.842 132.252C176.699 132.137 176.532 132.043 176.342 131.979L162.877 127.439C161.71 127.046 160.555 128.063 160.797 129.27L163.688 144.991C163.17 146.71 162.892 148.533 162.892 150.42C162.892 160.802 171.309 169.219 181.691 169.219C192.073 169.219 200.49 160.802 200.49 150.42C200.49 147.932 200.006 145.557 199.128 143.383C199.147 143.325 199.163 143.264 199.176 143.201L201.977 129.27Z" fill="white"/>
<path fill-rule="evenodd" clip-rule="evenodd" d="M201.977 129.27C202.219 128.063 201.064 127.045 199.897 127.439L186.432 131.979C186.308 132.021 186.195 132.075 186.091 132.139C184.68 131.8 183.206 131.621 181.691 131.621C180.014 131.621 178.389 131.841 176.842 132.252C176.699 132.137 176.532 132.043 176.342 131.979L162.877 127.439C161.71 127.046 160.555 128.063 160.797 129.27L163.688 144.991C163.17 146.71 162.892 148.533 162.892 150.42C162.892 160.802 171.309 169.219 181.691 169.219C192.073 169.219 200.49 160.802 200.49 150.42C200.49 147.932 200.006 145.557 199.128 143.383C199.147 143.325 199.163 143.264 199.176 143.201L201.977 129.27Z" fill="url(#paint2_linear_2556_18261)"/>
<path d="M191.582 153.413C191.204 153.413 190.847 153.192 190.714 152.834C190.335 151.814 189.412 151.182 188.254 151.151C187.275 151.151 186.028 151.572 185.461 152.877C185.272 153.319 184.737 153.529 184.259 153.35C183.791 153.171 183.569 152.666 183.758 152.214C184.515 150.456 186.307 149.393 188.299 149.414C190.224 149.467 191.816 150.551 192.439 152.256C192.606 152.708 192.35 153.203 191.871 153.361C191.771 153.392 191.671 153.413 191.571 153.413H191.582Z" fill="#42C87F"/>
<path d="M177.983 153.413C177.605 153.413 177.249 153.192 177.115 152.835C176.737 151.814 175.813 151.183 174.655 151.151C173.676 151.151 172.43 151.572 171.862 152.877C171.673 153.319 171.139 153.529 170.66 153.35C170.193 153.171 169.97 152.666 170.159 152.214C170.916 150.457 172.686 149.373 174.7 149.415C176.625 149.468 178.217 150.552 178.84 152.256C179.007 152.708 178.751 153.203 178.273 153.361C178.172 153.392 178.072 153.413 177.972 153.413H177.983Z" fill="#42C87F"/>
<path d="M181.291 160.419C182.616 160.419 183.691 159.344 183.691 158.019C183.691 156.693 182.616 155.619 181.291 155.619C179.965 155.619 178.891 156.693 178.891 158.019C178.891 159.344 179.965 160.419 181.291 160.419Z" fill="#68D49A"/>
<path d="M197.082 133.492C197.191 132.948 196.671 132.489 196.145 132.667L190.078 134.712C189.552 134.889 189.416 135.569 189.832 135.936L194.637 140.167C195.053 140.534 195.711 140.312 195.82 139.768L197.082 133.492Z" fill="#68D49A"/>
<path d="M165.606 133.492C165.497 132.948 166.017 132.489 166.543 132.667L172.61 134.712C173.136 134.889 173.273 135.569 172.856 135.936L168.051 140.167C167.635 140.534 166.978 140.312 166.868 139.768L165.606 133.492Z" fill="#68D49A"/>
<rect opacity="0.8" x="229.388" y="111.194" width="147" height="70" rx="35" fill="url(#paint3_linear_2556_18261)"/>
<path fill-rule="evenodd" clip-rule="evenodd" d="M303.139 159.594C300.032 162.459 295.883 164.208 291.329 164.208V164.222C281.698 164.222 273.9 156.419 273.9 146.782C273.9 137.145 281.712 129.343 291.329 129.343C295.889 129.343 300.042 131.093 303.15 133.962C306.256 131.094 310.407 129.343 314.969 129.343C324.6 129.343 332.398 137.132 332.398 146.769C332.398 156.406 324.587 164.209 314.969 164.209V164.222C310.401 164.222 306.246 162.467 303.139 159.594ZM308.755 147.126C308.94 150.396 311.655 152.997 314.969 152.997C318.403 152.997 321.194 150.205 321.194 146.769C321.194 143.333 318.403 140.541 314.969 140.541C311.655 140.541 308.94 143.142 308.755 146.412C308.757 146.531 308.758 146.65 308.758 146.769C308.758 146.888 308.757 147.007 308.755 147.126ZM297.544 147.129C297.356 150.398 294.642 152.997 291.329 152.997C287.895 152.997 285.105 150.205 285.105 146.769C285.105 143.333 287.895 140.54 291.329 140.54C294.644 140.54 297.36 143.143 297.544 146.415C297.541 146.537 297.54 146.66 297.54 146.783C297.54 146.899 297.541 147.014 297.544 147.129Z" fill="#EEEED4"/>
<path fill-rule="evenodd" clip-rule="evenodd" d="M303.139 159.594C300.032 162.459 295.883 164.208 291.329 164.208V164.222C281.698 164.222 273.9 156.419 273.9 146.782C273.9 137.145 281.712 129.343 291.329 129.343C295.889 129.343 300.042 131.093 303.15 133.962C306.256 131.094 310.407 129.343 314.969 129.343C324.6 129.343 332.398 137.132 332.398 146.769C332.398 156.406 324.587 164.209 314.969 164.209V164.222C310.401 164.222 306.246 162.467 303.139 159.594ZM308.755 147.126C308.94 150.396 311.655 152.997 314.969 152.997C318.403 152.997 321.194 150.205 321.194 146.769C321.194 143.333 318.403 140.541 314.969 140.541C311.655 140.541 308.94 143.142 308.755 146.412C308.757 146.531 308.758 146.65 308.758 146.769C308.758 146.888 308.757 147.007 308.755 147.126ZM297.544 147.129C297.356 150.398 294.642 152.997 291.329 152.997C287.895 152.997 285.105 150.205 285.105 146.769C285.105 143.333 287.895 140.54 291.329 140.54C294.644 140.54 297.36 143.143 297.544 146.415C297.541 146.537 297.54 146.66 297.54 146.783C297.54 146.899 297.541 147.014 297.544 147.129Z" fill="white"/>
<path d="M278.702 154.462H275.72L281.411 150.479C283.463 148.932 283.983 146.016 282.437 143.785C280.918 141.594 278.073 141.074 275.856 142.525L281.383 138.624C283.435 137.077 283.942 134.161 282.396 131.93C281.684 130.903 280.686 130.274 279.605 130C279.509 129.973 279.427 129.945 279.331 129.918C279.304 129.918 279.263 129.918 279.235 129.918C278.976 129.877 278.716 129.836 278.456 129.836H260.958C258.4 129.849 256.184 131.903 256.184 134.476C256.184 137.05 258.4 139.103 260.945 139.103H263.968L258.277 143.155C256.047 144.716 255.554 147.809 257.1 149.863C258.633 152.08 261.533 152.587 263.749 151.067L258.263 154.941C256.033 156.488 255.527 159.568 257.059 161.635C258.031 163.045 259.563 163.757 261.109 163.716C261.15 163.716 261.191 163.716 261.218 163.716H278.688C281.26 163.716 283.312 161.662 283.312 159.089C283.312 156.515 281.26 154.462 278.688 154.462H278.702Z" fill="#42C87F"/>
<path fill-rule="evenodd" clip-rule="evenodd" d="M344.888 151.724C344.136 151.724 343.425 151.875 342.768 152.149C341.208 152.874 339.703 152.696 339.115 152.587C336.365 151.971 334.313 149.52 334.313 146.591C334.313 143.182 337.104 140.431 340.511 140.431C340.511 140.431 340.483 140.431 340.511 140.431C340.511 140.431 341.496 140.403 342.741 140.924C342.768 140.937 342.699 140.91 342.741 140.924C343.37 141.184 344.163 141.362 344.888 141.362C347.939 141.362 350.415 138.884 350.415 135.831C350.415 133.463 348.883 131.615 346.831 130.657C346.831 130.657 344.396 129.343 340.292 129.343C340.278 129.343 340.305 129.343 340.292 129.343C340.278 129.343 340.305 129.343 340.292 129.343C330.852 129.439 323.218 137.118 323.218 146.591C323.218 156.064 330.948 163.839 340.47 163.853C344.368 163.853 347.064 162.36 347.064 162.36C349.047 161.512 350.429 159.554 350.429 157.268C350.429 154.216 347.953 151.738 344.902 151.738L344.888 151.724Z" fill="#42C87F"/>
<path d="M26.2945 266.553C21.1576 266.553 16.9822 262.377 16.9822 257.24C16.9822 255.778 17.3181 254.375 17.9832 253.058C18.1018 252.821 18.2335 252.584 18.3718 252.36L18.4508 252.228C18.5759 252.037 18.7011 251.86 18.8328 251.682C18.9052 251.583 18.9579 251.511 19.0106 251.445C19.1226 251.306 19.2411 251.168 19.3596 251.036C19.4716 250.911 19.5506 250.826 19.6363 250.74C19.7285 250.648 19.8272 250.556 19.926 250.463L21.3551 251.833L20.0051 250.391C20.1038 250.299 20.2092 250.207 20.3146 250.114C20.4002 250.042 20.4858 249.976 20.5714 249.91L20.6966 249.811C20.7822 249.739 20.8744 249.673 20.9666 249.601L23.0806 248.119C21.3288 247.474 19.7877 246.301 18.6879 244.734C15.744 240.526 16.7714 234.71 20.9732 231.766L25.7149 228.447C20.848 228.144 16.9822 224.094 16.9822 219.155C16.9822 214.215 21.1576 209.842 26.2945 209.842H55.0744H55.2127C58.2554 209.842 61.107 211.324 62.8457 213.814C64.2748 215.849 64.8214 218.325 64.3867 220.775C63.9521 223.225 62.5954 225.358 60.5604 226.788L58.4529 228.263C60.2048 228.915 61.7458 230.08 62.8457 231.648C64.2748 233.683 64.8214 236.159 64.3867 238.609C63.9521 241.059 62.5954 243.193 60.5604 244.622L55.7923 247.961C60.6526 248.27 64.5053 252.321 64.5053 257.253C64.5053 262.186 60.3299 266.566 55.193 266.566H26.2945V266.553Z" fill="white"/>
<path d="M54.9297 211.818C54.9626 211.818 54.9955 211.818 55.0285 211.818C55.0877 211.818 55.1536 211.818 55.2129 211.818C57.5245 211.818 59.8032 212.905 61.2257 214.946C63.5505 218.265 62.7404 222.843 59.4212 225.161L51.8146 230.489C52.8881 229.922 54.0603 229.652 55.2194 229.652C57.5311 229.652 59.8032 230.739 61.2257 232.774C63.5505 236.093 62.7404 240.67 59.4212 242.988L49.5491 249.904H55.1931C59.2434 249.904 62.5297 253.19 62.5297 257.24C62.5297 261.29 59.2434 264.577 55.1931 264.577H26.2946C22.2444 264.577 18.9581 261.29 18.9581 257.24C18.9581 256.055 19.2478 254.942 19.7418 253.947C19.834 253.756 19.9393 253.578 20.0513 253.401C20.0711 253.361 20.0974 253.328 20.1172 253.289C20.2094 253.144 20.3082 253.005 20.4135 252.867C20.4596 252.801 20.5057 252.742 20.5584 252.676C20.644 252.564 20.7362 252.459 20.835 252.353C20.9075 252.274 20.9733 252.195 21.0458 252.116C21.1314 252.031 21.2236 251.945 21.3092 251.866C21.4014 251.781 21.487 251.695 21.5792 251.616C21.6582 251.55 21.7504 251.484 21.8295 251.418C21.9217 251.346 22.0007 251.273 22.0995 251.208L29.7061 245.88C28.6326 246.446 27.4603 246.716 26.3012 246.716C23.9896 246.716 21.7175 245.629 20.295 243.594C17.9702 240.275 18.7802 235.698 22.0995 233.38L31.9518 226.484H26.2946C22.2444 226.484 18.9581 223.198 18.9581 219.148C18.9581 215.098 22.2444 211.811 26.2946 211.811H54.9297M54.9297 207.86H26.2946C20.0711 207.866 15.0066 212.931 15.0066 219.155C15.0066 223.534 17.5158 227.347 21.1775 229.211L19.834 230.153C17.3643 231.885 15.7179 234.473 15.191 237.437C14.6641 240.407 15.3293 243.403 17.0614 245.873C17.7199 246.815 18.5102 247.631 19.3927 248.316L19.373 248.33C19.2544 248.415 19.1425 248.507 19.0305 248.6C18.8922 248.712 18.7671 248.83 18.6419 248.949L18.6024 248.988L18.5761 249.014C18.451 249.133 18.3258 249.252 18.2073 249.37C18.0953 249.482 18.0031 249.594 17.9043 249.699L17.8714 249.732C17.7331 249.884 17.5948 250.048 17.4565 250.22C17.3841 250.312 17.3182 250.404 17.2523 250.49L17.226 250.523C17.0679 250.74 16.9165 250.951 16.7848 251.155C16.7452 251.221 16.7123 251.273 16.6794 251.326C16.5213 251.583 16.3698 251.853 16.2315 252.123L16.1986 252.189L16.1789 252.235C15.3951 253.809 15 255.495 15 257.24C15 263.464 20.0645 268.528 26.2881 268.528H55.1931C61.4167 268.528 66.4812 263.464 66.4812 257.24C66.4812 252.861 63.972 249.054 60.3234 247.184L61.6933 246.229C66.7907 242.659 68.0354 235.606 64.4659 230.508C63.8073 229.573 63.0236 228.75 62.1411 228.072C64.3605 226.353 65.8423 223.903 66.3363 221.117C66.8566 218.147 66.198 215.15 64.4659 212.681C62.3585 209.671 58.9009 207.866 55.2129 207.866C55.1733 207.866 55.1338 207.866 55.0943 207.866C55.0416 207.866 54.9824 207.866 54.9297 207.866V207.86Z" fill="white"/>
<path d="M55.1996 249.911H26.2946C22.2427 249.911 18.958 253.195 18.958 257.247C18.958 261.299 22.2427 264.584 26.2946 264.584H55.1996C59.2515 264.584 62.5362 261.299 62.5362 257.247C62.5362 253.195 59.2515 249.911 55.1996 249.911Z" fill="url(#paint4_linear_2556_18261)"/>
<path d="M54.9296 211.818H26.2946C22.2427 211.818 18.958 215.103 18.958 219.154C18.958 223.206 22.2427 226.491 26.2946 226.491H54.9296C58.9815 226.491 62.2662 223.206 62.2662 219.154C62.2662 215.103 58.9815 211.818 54.9296 211.818Z" fill="url(#paint5_linear_2556_18261)"/>
<path d="M30.5177 245.412L59.4282 225.168C62.7473 222.844 63.554 218.27 61.2299 214.95C58.9058 211.631 54.3311 210.825 51.012 213.149L22.1015 233.392C18.7824 235.716 17.9757 240.291 20.2998 243.61C22.6239 246.929 27.1986 247.736 30.5177 245.412Z" fill="url(#paint6_linear_2556_18261)"/>
<path d="M30.5202 263.243L59.4308 243C62.7499 240.676 63.5565 236.101 61.2325 232.782C58.9084 229.463 54.3337 228.656 51.0146 230.98L22.104 251.224C18.7849 253.548 17.9783 258.122 20.3024 261.442C22.6264 264.761 27.2011 265.567 30.5202 263.243Z" fill="url(#paint7_linear_2556_18261)"/>
<rect x="79.5096" y="203.194" width="147" height="70" rx="35" fill="#42C87F"/>
<rect x="79.5096" y="203.194" width="147" height="70" rx="35" fill="url(#paint8_linear_2556_18261)"/>
<path fill-rule="evenodd" clip-rule="evenodd" d="M153.261 251.594C150.154 254.459 146.005 256.208 141.451 256.208V256.222C131.82 256.222 124.022 248.419 124.022 238.782C124.022 229.145 131.834 221.343 141.451 221.343C146.01 221.343 150.164 223.093 153.272 225.962C156.377 223.094 160.528 221.343 165.091 221.343C174.722 221.343 182.52 229.132 182.52 238.769C182.52 248.406 174.708 256.209 165.091 256.209V256.222C160.523 256.222 156.368 254.467 153.261 251.594ZM158.876 239.126C159.062 242.396 161.777 244.997 165.091 244.997C168.525 244.997 171.316 242.205 171.316 238.769C171.316 235.333 168.525 232.541 165.091 232.541C161.777 232.541 159.062 235.142 158.876 238.412C158.879 238.531 158.88 238.65 158.88 238.769C158.88 238.888 158.879 239.007 158.876 239.126ZM147.665 239.129C147.478 242.398 144.764 244.997 141.451 244.997C138.017 244.997 135.226 242.205 135.226 238.769C135.226 235.333 138.017 232.54 141.451 232.54C144.766 232.54 147.482 235.143 147.666 238.415C147.663 238.537 147.662 238.66 147.662 238.783C147.662 238.899 147.663 239.014 147.665 239.129Z" fill="#C7EAD1"/>
<path d="M128.824 246.462H125.841L131.532 242.479C133.585 240.932 134.104 238.016 132.558 235.785C131.04 233.594 128.194 233.074 125.978 234.525L131.505 230.624C133.557 229.077 134.063 226.161 132.517 223.93C131.806 222.903 130.807 222.274 129.727 222C129.631 221.973 129.549 221.945 129.453 221.918C129.426 221.918 129.385 221.918 129.357 221.918C129.097 221.877 128.837 221.836 128.577 221.836H111.08C108.522 221.849 106.306 223.903 106.306 226.476C106.306 229.05 108.522 231.103 111.066 231.103H114.09L108.399 235.155C106.169 236.716 105.676 239.809 107.222 241.863C108.754 244.08 111.655 244.587 113.871 243.067L108.385 246.941C106.155 248.488 105.649 251.568 107.181 253.635C108.152 255.045 109.685 255.757 111.231 255.716C111.272 255.716 111.313 255.716 111.34 255.716H128.81C131.382 255.716 133.434 253.662 133.434 251.089C133.434 248.515 131.382 246.462 128.81 246.462H128.824Z" fill="#68D49A"/>
<path fill-rule="evenodd" clip-rule="evenodd" d="M195.01 243.724C194.258 243.724 193.546 243.875 192.89 244.149C191.33 244.874 189.825 244.696 189.237 244.587C186.487 243.971 184.435 241.52 184.435 238.591C184.435 235.182 187.226 232.431 190.632 232.431C190.632 232.431 190.605 232.431 190.632 232.431C190.632 232.431 191.617 232.403 192.862 232.924C192.89 232.937 192.821 232.91 192.862 232.924C193.492 233.184 194.285 233.362 195.01 233.362C198.061 233.362 200.537 230.884 200.537 227.831C200.537 225.463 199.005 223.615 196.953 222.657C196.953 222.657 194.518 221.343 190.413 221.343C190.4 221.343 190.427 221.343 190.413 221.343C190.4 221.343 190.427 221.343 190.413 221.343C180.974 221.439 173.34 229.118 173.34 238.591C173.34 248.064 181.07 255.839 190.591 255.853C194.49 255.853 197.185 254.36 197.185 254.36C199.169 253.512 200.551 251.554 200.551 249.268C200.551 246.216 198.074 243.738 195.024 243.738L195.01 243.724Z" fill="#68D49A"/>
<g clip-path="url(#clip0_2556_18261)">
<g opacity="0.5">
<path d="M245.28 210.809C243.75 210.289 242.23 211.629 242.55 213.219L246.35 233.869C245.67 236.129 245.3 238.519 245.3 240.999C245.3 254.639 256.36 265.689 269.99 265.689C283.62 265.689 294.68 254.629 294.68 240.999C294.68 237.729 294.05 234.609 292.89 231.759C292.91 231.679 292.94 231.599 292.95 231.519L296.63 213.219C296.95 211.629 295.43 210.299 293.9 210.809L276.21 216.769C276.05 216.819 275.9 216.899 275.76 216.979C273.91 216.539 271.97 216.299 269.98 216.299C267.78 216.299 265.64 216.589 263.61 217.129C263.42 216.979 263.2 216.859 262.95 216.769L245.28 210.809Z" stroke="#68D49A" stroke-width="6"/>
<path d="M282.99 244.929C282.49 244.929 282.03 244.639 281.85 244.169C281.35 242.829 280.14 241.999 278.62 241.959C277.33 241.959 275.7 242.509 274.95 244.229C274.7 244.809 274 245.089 273.37 244.849C272.76 244.609 272.46 243.949 272.71 243.359C273.7 241.049 276.06 239.659 278.67 239.679C281.2 239.749 283.29 241.169 284.11 243.409C284.33 243.999 283.99 244.649 283.36 244.859C283.23 244.899 283.1 244.929 282.97 244.929H282.98H282.99Z" stroke="#68D49A" stroke-width="6"/>
<path d="M265.13 244.929C264.63 244.929 264.17 244.639 263.99 244.169C263.49 242.829 262.28 241.999 260.76 241.959C259.47 241.959 257.84 242.509 257.09 244.229C256.84 244.809 256.14 245.089 255.51 244.849C254.9 244.619 254.6 243.949 254.85 243.359C255.84 241.049 258.17 239.629 260.81 239.679C263.34 239.749 265.43 241.169 266.25 243.409C266.47 243.999 266.13 244.649 265.5 244.859C265.37 244.899 265.24 244.929 265.11 244.929H265.12H265.13Z" stroke="#68D49A" stroke-width="6"/>
<path d="M269.47 254.139C271.21 254.139 272.62 252.729 272.62 250.989C272.62 249.249 271.21 247.839 269.47 247.839C267.73 247.839 266.32 249.249 266.32 250.989C266.32 252.729 267.73 254.139 269.47 254.139Z" stroke="#68D49A" stroke-width="6"/>
<path d="M290.22 218.759C290.36 218.049 289.68 217.439 288.99 217.679L281.02 220.369C280.33 220.599 280.15 221.499 280.7 221.979L287.01 227.539C287.56 228.019 288.42 227.729 288.56 227.019L290.22 218.769V218.759Z" stroke="#68D49A" stroke-width="6"/>
<path d="M248.87 218.759C248.73 218.049 249.41 217.439 250.1 217.679L258.07 220.369C258.76 220.599 258.94 221.499 258.39 221.979L252.08 227.539C251.53 228.019 250.67 227.729 250.53 227.019L248.87 218.769V218.759Z" stroke="#68D49A" stroke-width="6"/>
</g>
<path fill-rule="evenodd" clip-rule="evenodd" d="M245.28 210.809C243.75 210.289 242.23 211.629 242.55 213.219L246.35 233.869C245.67 236.129 245.3 238.519 245.3 240.999C245.3 254.639 256.36 265.689 269.99 265.689C283.62 265.689 294.68 254.629 294.68 240.999C294.68 237.729 294.05 234.609 292.89 231.759C292.91 231.679 292.94 231.599 292.95 231.519L296.63 213.219C296.95 211.629 295.43 210.299 293.9 210.809L276.21 216.769C276.05 216.819 275.9 216.899 275.76 216.979C273.91 216.539 271.97 216.299 269.98 216.299C267.78 216.299 265.64 216.589 263.61 217.129C263.42 216.979 263.2 216.859 262.95 216.769L245.28 210.809Z" fill="url(#paint9_linear_2556_18261)"/>
<path d="M282.99 244.929C282.49 244.929 282.03 244.639 281.85 244.169C281.35 242.829 280.14 241.999 278.62 241.959C277.33 241.959 275.7 242.509 274.95 244.229C274.7 244.809 274 245.089 273.37 244.849C272.76 244.609 272.46 243.949 272.71 243.359C273.7 241.049 276.06 239.659 278.67 239.679C281.2 239.749 283.29 241.169 284.11 243.409C284.33 243.999 283.99 244.649 283.36 244.859C283.23 244.899 283.1 244.929 282.97 244.929H282.98H282.99Z" fill="white"/>
<path d="M265.13 244.929C264.63 244.929 264.17 244.639 263.99 244.169C263.49 242.829 262.28 241.999 260.76 241.959C259.47 241.959 257.84 242.509 257.09 244.229C256.84 244.809 256.14 245.089 255.51 244.849C254.9 244.619 254.6 243.949 254.85 243.359C255.84 241.049 258.17 239.629 260.81 239.679C263.34 239.749 265.43 241.169 266.25 243.409C266.47 243.999 266.13 244.649 265.5 244.859C265.37 244.899 265.24 244.929 265.11 244.929H265.12H265.13Z" fill="white"/>
<path d="M269.47 254.139C271.21 254.139 272.62 252.729 272.62 250.989C272.62 249.249 271.21 247.839 269.47 247.839C267.73 247.839 266.32 249.249 266.32 250.989C266.32 252.729 267.73 254.139 269.47 254.139Z" fill="white"/>
<path d="M290.22 218.759C290.36 218.049 289.68 217.439 288.99 217.679L281.02 220.369C280.33 220.599 280.15 221.499 280.7 221.979L287.01 227.539C287.56 228.019 288.42 227.729 288.56 227.019L290.22 218.769V218.759Z" fill="white"/>
<path d="M248.87 218.759C248.73 218.049 249.41 217.439 250.1 217.679L258.07 220.369C258.76 220.599 258.94 221.499 258.39 221.979L252.08 227.539C251.53 228.019 250.67 227.729 250.53 227.019L248.87 218.769V218.759Z" fill="white"/>
</g>
<path d="M323.984 266.553C318.847 266.553 314.672 262.377 314.672 257.24C314.672 255.778 315.008 254.375 315.673 253.058C315.791 252.821 315.923 252.584 316.061 252.36L316.14 252.228C316.266 252.037 316.391 251.86 316.522 251.682C316.595 251.583 316.648 251.511 316.7 251.445C316.812 251.306 316.931 251.168 317.049 251.036C317.161 250.911 317.24 250.826 317.326 250.74C317.418 250.648 317.517 250.556 317.616 250.463L319.045 251.833L317.695 250.391C317.793 250.299 317.899 250.207 318.004 250.114C318.09 250.042 318.175 249.976 318.261 249.91L318.386 249.811C318.472 249.739 318.564 249.673 318.656 249.601L320.77 248.119C319.018 247.474 317.477 246.301 316.378 244.734C313.434 240.526 314.461 234.71 318.663 231.766L323.405 228.447C318.538 228.144 314.672 224.094 314.672 219.155C314.672 214.215 318.847 209.842 323.984 209.842H352.764H352.902C355.945 209.842 358.797 211.324 360.535 213.814C361.964 215.849 362.511 218.325 362.076 220.775C361.642 223.225 360.285 225.358 358.25 226.788L356.143 228.263C357.894 228.915 359.435 230.08 360.535 231.648C361.964 233.683 362.511 236.159 362.076 238.609C361.642 241.059 360.285 243.193 358.25 244.622L353.482 247.961C358.342 248.27 362.195 252.321 362.195 257.253C362.195 262.186 358.02 266.566 352.883 266.566H323.984V266.553Z" fill="#42C87F"/>
<path d="M352.619 211.818C352.652 211.818 352.685 211.818 352.718 211.818C352.777 211.818 352.843 211.818 352.902 211.818C355.214 211.818 357.493 212.905 358.915 214.946C361.24 218.265 360.43 222.843 357.111 225.161L349.504 230.489C350.578 229.922 351.75 229.652 352.909 229.652C355.221 229.652 357.493 230.739 358.915 232.774C361.24 236.093 360.43 240.67 357.111 242.988L347.239 249.904H352.883C356.933 249.904 360.219 253.19 360.219 257.24C360.219 261.29 356.933 264.577 352.883 264.577H323.984C319.934 264.577 316.648 261.29 316.648 257.24C316.648 256.055 316.937 254.942 317.431 253.947C317.524 253.756 317.629 253.578 317.741 253.401C317.761 253.361 317.787 253.328 317.807 253.289C317.899 253.144 317.998 253.005 318.103 252.867C318.149 252.801 318.195 252.742 318.248 252.676C318.334 252.564 318.426 252.459 318.525 252.353C318.597 252.274 318.663 252.195 318.735 252.116C318.821 252.031 318.913 251.945 318.999 251.866C319.091 251.781 319.177 251.695 319.269 251.616C319.348 251.55 319.44 251.484 319.519 251.418C319.611 251.346 319.69 251.273 319.789 251.208L327.396 245.88C326.322 246.446 325.15 246.716 323.991 246.716C321.679 246.716 319.407 245.629 317.985 243.594C315.66 240.275 316.47 235.698 319.789 233.38L329.641 226.484H323.984C319.934 226.484 316.648 223.198 316.648 219.148C316.648 215.098 319.934 211.811 323.984 211.811H352.619M352.619 207.86H323.984C317.761 207.866 312.696 212.931 312.696 219.155C312.696 223.534 315.205 227.347 318.867 229.211L317.524 230.153C315.054 231.885 313.407 234.473 312.881 237.437C312.354 240.407 313.019 243.403 314.751 245.873C315.41 246.815 316.2 247.631 317.082 248.316L317.063 248.33C316.944 248.415 316.832 248.507 316.72 248.6C316.582 248.712 316.457 248.83 316.332 248.949L316.292 248.988L316.266 249.014C316.141 249.133 316.015 249.252 315.897 249.37C315.785 249.482 315.693 249.594 315.594 249.699L315.561 249.732C315.423 249.884 315.284 250.048 315.146 250.22C315.074 250.312 315.008 250.404 314.942 250.49L314.916 250.523C314.758 250.74 314.606 250.951 314.474 251.155C314.435 251.221 314.402 251.273 314.369 251.326C314.211 251.583 314.059 251.853 313.921 252.123L313.888 252.189L313.868 252.235C313.085 253.809 312.69 255.495 312.69 257.24C312.69 263.464 317.754 268.528 323.978 268.528H352.883C359.106 268.528 364.171 263.464 364.171 257.24C364.171 252.861 361.662 249.054 358.013 247.184L359.383 246.229C364.48 242.659 365.725 235.606 362.156 230.508C361.497 229.573 360.713 228.75 359.831 228.072C362.05 226.353 363.532 223.903 364.026 221.117C364.546 218.147 363.888 215.15 362.156 212.681C360.048 209.671 356.591 207.866 352.902 207.866C352.863 207.866 352.823 207.866 352.784 207.866C352.731 207.866 352.672 207.866 352.619 207.866V207.86Z" fill="#42C87F"/>
<path d="M352.889 249.911H323.984C319.932 249.911 316.648 253.195 316.648 257.247C316.648 261.299 319.932 264.584 323.984 264.584H352.889C356.941 264.584 360.226 261.299 360.226 257.247C360.226 253.195 356.941 249.911 352.889 249.911Z" fill="url(#paint10_linear_2556_18261)"/>
<path d="M352.889 249.911H323.984C319.932 249.911 316.648 253.195 316.648 257.247C316.648 261.299 319.932 264.584 323.984 264.584H352.889C356.941 264.584 360.226 261.299 360.226 257.247C360.226 253.195 356.941 249.911 352.889 249.911Z" fill="url(#paint11_linear_2556_18261)"/>
<path d="M352.619 211.818H323.984C319.932 211.818 316.648 215.103 316.648 219.154C316.648 223.206 319.932 226.491 323.984 226.491H352.619C356.671 226.491 359.956 223.206 359.956 219.154C359.956 215.103 356.671 211.818 352.619 211.818Z" fill="#EEEED4"/>
<path d="M352.619 211.818H323.984C319.932 211.818 316.648 215.103 316.648 219.154C316.648 223.206 319.932 226.491 323.984 226.491H352.619C356.671 226.491 359.956 223.206 359.956 219.154C359.956 215.103 356.671 211.818 352.619 211.818Z" fill="url(#paint12_linear_2556_18261)"/>
<path d="M328.207 245.412L357.118 225.168C360.437 222.844 361.244 218.27 358.92 214.95C356.595 211.631 352.021 210.825 348.702 213.149L319.791 233.392C316.472 235.716 315.665 240.291 317.989 243.61C320.314 246.929 324.888 247.736 328.207 245.412Z" fill="url(#paint13_linear_2556_18261)"/>
<path d="M328.207 245.412L357.118 225.168C360.437 222.844 361.244 218.27 358.92 214.95C356.595 211.631 352.021 210.825 348.702 213.149L319.791 233.392C316.472 235.716 315.665 240.291 317.989 243.61C320.314 246.929 324.888 247.736 328.207 245.412Z" fill="url(#paint14_linear_2556_18261)"/>
<path d="M328.21 263.243L357.12 243C360.439 240.676 361.246 236.101 358.922 232.782C356.598 229.463 352.023 228.656 348.704 230.98L319.794 251.224C316.475 253.548 315.668 258.122 317.992 261.442C320.316 264.761 324.891 265.567 328.21 263.243Z" fill="#EEEED4"/>
<path d="M328.21 263.243L357.12 243C360.439 240.676 361.246 236.101 358.922 232.782C356.598 229.463 352.023 228.656 348.704 230.98L319.794 251.224C316.475 253.548 315.668 258.122 317.992 261.442C320.316 264.761 324.891 265.567 328.21 263.243Z" fill="url(#paint15_linear_2556_18261)"/>
<rect x="21" y="19.1982" width="147" height="70" rx="35" fill="#42C87F"/>
<rect x="21" y="19.1982" width="147" height="70" rx="35" fill="url(#paint16_linear_2556_18261)"/>
<path fill-rule="evenodd" clip-rule="evenodd" d="M94.7511 67.5977C91.6445 70.4631 87.4954 72.2126 82.9413 72.2126V72.2263C73.3102 72.2263 65.5123 64.4236 65.5123 54.7866C65.5123 45.1496 73.3239 37.3469 82.9413 37.3469C87.5008 37.3469 91.6544 39.0975 94.7622 41.9657C97.8677 39.0982 102.019 37.3471 106.581 37.3471C116.212 37.3471 124.01 45.1361 124.01 54.7731C124.01 64.4101 116.199 72.2128 106.581 72.2128V72.2265C102.013 72.2265 97.8579 70.4713 94.7511 67.5977ZM100.367 55.1301C100.552 58.4004 103.267 61.0016 106.581 61.0016C110.015 61.0016 112.806 58.209 112.806 54.7731C112.806 51.3372 110.015 48.5447 106.581 48.5447C103.267 48.5447 100.552 51.1458 100.367 54.416C100.369 54.5347 100.37 54.6537 100.37 54.7729C100.37 54.8923 100.369 55.0113 100.367 55.1301ZM89.1557 55.1336C88.9685 58.4021 86.2542 61.0014 82.9413 61.0014C79.5075 61.0014 76.7167 58.2088 76.7167 54.7729C76.7167 51.337 79.5075 48.5445 82.9413 48.5445C86.2566 48.5445 88.9725 51.1475 89.1561 54.4195C89.1536 54.5416 89.1523 54.6641 89.1523 54.7868C89.1523 54.9027 89.1534 55.0183 89.1557 55.1336Z" fill="#C7EAD1"/>
<path d="M70.314 62.4662H67.3317L73.0228 58.4827C75.0749 56.9359 75.5947 54.0201 74.0488 51.7888C72.5303 49.5986 69.6847 49.0784 67.4685 50.5295L72.9954 46.6281C75.0475 45.0813 75.5537 42.1655 74.0078 39.9342C73.2964 38.9076 72.2977 38.2779 71.217 38.0041C71.1212 37.9767 71.0391 37.9494 70.9434 37.922C70.916 37.922 70.875 37.922 70.8476 37.922C70.5877 37.8809 70.3277 37.8398 70.0678 37.8398H52.5704C50.0121 37.8535 47.7959 39.9069 47.7959 42.4804C47.7959 45.0539 50.0121 47.1072 52.5567 47.1072H55.5801L49.889 51.1592C47.6591 52.7197 47.1666 55.8134 48.7125 57.8667C50.2447 60.0843 53.145 60.5908 55.3612 59.0714L49.8753 62.9453C47.6454 64.4922 47.1392 67.5722 48.6714 69.6392C49.6428 71.0492 51.175 71.761 52.7209 71.7199C52.7619 71.7199 52.803 71.7199 52.8303 71.7199H70.3004C72.8723 71.7199 74.9244 69.6666 74.9244 67.0931C74.9244 64.5195 72.8723 62.4662 70.3004 62.4662H70.314Z" fill="#68D49A"/>
<path fill-rule="evenodd" clip-rule="evenodd" d="M136.5 59.7283C135.748 59.7283 135.037 59.8789 134.38 60.1527C132.82 60.8782 131.315 60.7002 130.727 60.5907C127.977 59.9747 125.925 57.5244 125.925 54.595C125.925 51.1864 128.716 48.4349 132.123 48.4349C132.123 48.4349 132.095 48.4349 132.123 48.4349C132.123 48.4349 133.108 48.4076 134.353 48.9277C134.38 48.9414 134.312 48.9141 134.353 48.9277C134.982 49.1878 135.775 49.3658 136.5 49.3658C139.551 49.3658 142.027 46.8881 142.027 43.8355C142.027 41.4673 140.495 39.6193 138.443 38.6611C138.443 38.6611 136.008 37.3469 131.904 37.3469C131.89 37.3469 131.917 37.3469 131.904 37.3469C131.89 37.3469 131.917 37.3469 131.904 37.3469C122.464 37.4427 114.83 45.1222 114.83 54.595C114.83 64.0677 122.56 71.843 132.082 71.8567C135.981 71.8567 138.676 70.3646 138.676 70.3646C140.659 69.5159 142.041 67.5584 142.041 65.2723C142.041 62.2197 139.565 59.742 136.514 59.742L136.5 59.7283Z" fill="#68D49A"/>
<g clip-path="url(#clip1_2556_18261)">
<g opacity="0.5">
<path d="M186.77 26.8131C185.24 26.2931 183.72 27.6331 184.04 29.2231L187.84 49.8731C187.16 52.1331 186.79 54.5231 186.79 57.0031C186.79 70.6431 197.85 81.6931 211.48 81.6931C225.11 81.6931 236.17 70.6331 236.17 57.0031C236.17 53.7331 235.54 50.6131 234.38 47.7631C234.4 47.6831 234.43 47.6031 234.44 47.5231L238.12 29.2231C238.44 27.6331 236.92 26.3031 235.39 26.8131L217.7 32.7731C217.54 32.8231 217.39 32.9031 217.25 32.9831C215.4 32.5431 213.46 32.3031 211.47 32.3031C209.27 32.3031 207.13 32.5931 205.1 33.1331C204.91 32.9831 204.69 32.8631 204.44 32.7731L186.77 26.8131Z" stroke="#68D49A" stroke-width="6"/>
<path d="M224.48 60.9331C223.98 60.9331 223.52 60.6431 223.34 60.1731C222.84 58.8331 221.63 58.0031 220.11 57.9631C218.82 57.9631 217.19 58.5131 216.44 60.2331C216.19 60.8131 215.49 61.0931 214.86 60.8531C214.25 60.6131 213.95 59.9531 214.2 59.3631C215.19 57.0531 217.55 55.6631 220.16 55.6831C222.69 55.7531 224.78 57.1731 225.6 59.4131C225.82 60.0031 225.48 60.6531 224.85 60.8631C224.72 60.9031 224.59 60.9331 224.46 60.9331H224.47H224.48Z" stroke="#68D49A" stroke-width="6"/>
<path d="M206.62 60.9332C206.12 60.9332 205.66 60.6432 205.48 60.1732C204.98 58.8332 203.77 58.0032 202.25 57.9632C200.96 57.9632 199.33 58.5132 198.58 60.2332C198.33 60.8132 197.63 61.0932 197 60.8532C196.39 60.6232 196.09 59.9532 196.34 59.3632C197.33 57.0532 199.66 55.6332 202.3 55.6832C204.83 55.7532 206.92 57.1732 207.74 59.4132C207.96 60.0032 207.62 60.6532 206.99 60.8632C206.86 60.9032 206.73 60.9332 206.6 60.9332H206.61H206.62Z" stroke="#68D49A" stroke-width="6"/>
<path d="M210.96 70.143C212.7 70.143 214.11 68.733 214.11 66.993C214.11 65.253 212.7 63.843 210.96 63.843C209.22 63.843 207.81 65.253 207.81 66.993C207.81 68.733 209.22 70.143 210.96 70.143Z" stroke="#68D49A" stroke-width="6"/>
<path d="M231.71 34.763C231.85 34.053 231.17 33.443 230.48 33.683L222.51 36.373C221.82 36.603 221.64 37.503 222.19 37.983L228.5 43.543C229.05 44.023 229.91 43.733 230.05 43.023L231.71 34.773V34.763Z" stroke="#68D49A" stroke-width="6"/>
<path d="M190.36 34.763C190.22 34.053 190.9 33.443 191.59 33.683L199.56 36.373C200.25 36.603 200.43 37.503 199.88 37.983L193.57 43.543C193.02 44.023 192.16 43.733 192.02 43.023L190.36 34.773V34.763Z" stroke="#68D49A" stroke-width="6"/>
</g>
<path fill-rule="evenodd" clip-rule="evenodd" d="M186.77 26.8131C185.24 26.2931 183.72 27.6331 184.04 29.2231L187.84 49.8731C187.16 52.1331 186.79 54.5231 186.79 57.0031C186.79 70.6431 197.85 81.6931 211.48 81.6931C225.11 81.6931 236.17 70.6331 236.17 57.0031C236.17 53.7331 235.54 50.6131 234.38 47.7631C234.4 47.6831 234.43 47.6031 234.44 47.5231L238.12 29.2231C238.44 27.6331 236.92 26.3031 235.39 26.8131L217.7 32.7731C217.54 32.8231 217.39 32.9031 217.25 32.9831C215.4 32.5431 213.46 32.3031 211.47 32.3031C209.27 32.3031 207.13 32.5931 205.1 33.1331C204.91 32.9831 204.69 32.8631 204.44 32.7731L186.77 26.8131Z" fill="url(#paint17_linear_2556_18261)"/>
<path d="M224.48 60.9331C223.98 60.9331 223.52 60.6431 223.34 60.1731C222.84 58.8331 221.63 58.0031 220.11 57.9631C218.82 57.9631 217.19 58.5131 216.44 60.2331C216.19 60.8131 215.49 61.0931 214.86 60.8531C214.25 60.6131 213.95 59.9531 214.2 59.3631C215.19 57.0531 217.55 55.6631 220.16 55.6831C222.69 55.7531 224.78 57.1731 225.6 59.4131C225.82 60.0031 225.48 60.6531 224.85 60.8631C224.72 60.9031 224.59 60.9331 224.46 60.9331H224.47H224.48Z" fill="white"/>
<path d="M206.62 60.9332C206.12 60.9332 205.66 60.6432 205.48 60.1732C204.98 58.8332 203.77 58.0032 202.25 57.9632C200.96 57.9632 199.33 58.5132 198.58 60.2332C198.33 60.8132 197.63 61.0932 197 60.8532C196.39 60.6232 196.09 59.9532 196.34 59.3632C197.33 57.0532 199.66 55.6332 202.3 55.6832C204.83 55.7532 206.92 57.1732 207.74 59.4132C207.96 60.0032 207.62 60.6532 206.99 60.8632C206.86 60.9032 206.73 60.9332 206.6 60.9332H206.61H206.62Z" fill="white"/>
<path d="M210.96 70.143C212.7 70.143 214.11 68.733 214.11 66.993C214.11 65.253 212.7 63.843 210.96 63.843C209.22 63.843 207.81 65.253 207.81 66.993C207.81 68.733 209.22 70.143 210.96 70.143Z" fill="white"/>
<path d="M231.71 34.763C231.85 34.053 231.17 33.443 230.48 33.683L222.51 36.373C221.82 36.603 221.64 37.503 222.19 37.983L228.5 43.543C229.05 44.023 229.91 43.733 230.05 43.023L231.71 34.773V34.763Z" fill="white"/>
<path d="M190.36 34.763C190.22 34.053 190.9 33.443 191.59 33.683L199.56 36.373C200.25 36.603 200.43 37.503 199.88 37.983L193.57 43.543C193.02 44.023 192.16 43.733 192.02 43.023L190.36 34.773V34.763Z" fill="white"/>
</g>
<g opacity="0.8">
<path d="M289.18 89.1982C308.51 89.1982 324.18 73.5282 324.18 54.1982C324.18 34.8683 308.51 19.1982 289.18 19.1982C269.85 19.1982 254.18 34.8683 254.18 54.1982C254.18 73.5282 269.85 89.1982 289.18 89.1982Z" fill="#42C87F"/>
<path d="M289.18 89.1982C308.51 89.1982 324.18 73.5282 324.18 54.1982C324.18 34.8683 308.51 19.1982 289.18 19.1982C269.85 19.1982 254.18 34.8683 254.18 54.1982C254.18 73.5282 269.85 89.1982 289.18 89.1982Z" fill="url(#paint18_linear_2556_18261)"/>
</g>
<circle cx="289.035" cy="55.4301" r="19.4184" fill="white"/>
<path fill-rule="evenodd" clip-rule="evenodd" d="M303.548 60.8302C298.402 61.6088 291.861 60.7187 289.035 55.0657C285.73 48.4547 288.3 38.4887 293.166 36.4258C295.958 37.1236 299.928 38.4107 303.583 42.2784C309.878 43.8032 316.144 52.325 315.883 59.7085C315.888 59.8127 315.891 59.9177 315.891 60.0233C315.891 63.446 313.116 66.2206 309.693 66.2206C306.544 66.2206 303.943 63.8717 303.548 60.8302Z" fill="#EEEED4"/>
<path fill-rule="evenodd" clip-rule="evenodd" d="M303.548 60.8302C298.402 61.6088 291.861 60.7187 289.035 55.0657C285.73 48.4547 288.3 38.4887 293.166 36.4258C295.958 37.1236 299.928 38.4107 303.583 42.2784C309.878 43.8032 316.144 52.325 315.883 59.7085C315.888 59.8127 315.891 59.9177 315.891 60.0233C315.891 63.446 313.116 66.2206 309.693 66.2206C306.544 66.2206 303.943 63.8717 303.548 60.8302Z" fill="url(#paint19_linear_2556_18261)"/>
<path d="M295.233 56.6698C296.602 56.6698 297.712 55.5599 297.712 54.1909C297.712 52.8218 296.602 51.7119 295.233 51.7119C293.864 51.7119 292.754 52.8218 292.754 54.1909C292.754 55.5599 293.864 56.6698 295.233 56.6698Z" fill="url(#paint20_linear_2556_18261)"/>
<path d="M282.838 56.6698C284.207 56.6698 285.317 55.5599 285.317 54.1909C285.317 52.8218 284.207 51.7119 282.838 51.7119C281.469 51.7119 280.359 52.8218 280.359 54.1909C280.359 55.5599 281.469 56.6698 282.838 56.6698Z" fill="url(#paint21_linear_2556_18261)"/>
<path d="M288.622 63.2802C289.991 63.2802 291.101 62.1703 291.101 60.8012C291.101 59.4321 289.991 58.3223 288.622 58.3223C287.253 58.3223 286.143 59.4321 286.143 60.8012C286.143 62.1703 287.253 63.2802 288.622 63.2802Z" fill="url(#paint22_linear_2556_18261)"/>
<path fill-rule="evenodd" clip-rule="evenodd" d="M262.188 59.7075C262.183 59.8118 262.18 59.9168 262.18 60.0224C262.18 63.4451 264.955 66.2198 268.377 66.2198C271.8 66.2198 274.575 63.4451 274.575 60.0224C274.575 58.6268 274.113 57.3389 273.335 56.3029C271.376 49.4875 272.869 46.1195 274.157 43.2136C274.301 42.8904 274.442 42.5728 274.575 42.2568C268.25 43.7235 261.926 52.2899 262.188 59.7075Z" fill="#EEEED4"/>
<path fill-rule="evenodd" clip-rule="evenodd" d="M262.188 59.7075C262.183 59.8118 262.18 59.9168 262.18 60.0224C262.18 63.4451 264.955 66.2198 268.377 66.2198C271.8 66.2198 274.575 63.4451 274.575 60.0224C274.575 58.6268 274.113 57.3389 273.335 56.3029C271.376 49.4875 272.869 46.1195 274.157 43.2136C274.301 42.8904 274.442 42.5728 274.575 42.2568C268.25 43.7235 261.926 52.2899 262.188 59.7075Z" fill="url(#paint23_linear_2556_18261)"/>
<path opacity="0.5" d="M372.374 89.3879C391.811 89.3879 407.568 73.6311 407.568 54.194C407.568 34.7569 391.811 19 372.374 19C352.937 19 337.18 34.7569 337.18 54.194C337.18 73.6311 352.937 89.3879 372.374 89.3879Z" fill="#68D49A"/>
<path d="M386.714 52.183L386.307 50.8869C385.983 49.8567 385.219 49.0176 384.23 48.5855L363.974 39.8286C361.615 38.8067 358.948 40.4268 358.765 42.994L358.042 53.2133C357.876 55.5977 360.925 58.165 363.775 56.952C364.564 58.5389 365.528 59.4528 367.962 59.6688C370.172 59.8682 371.768 58.9709 372.648 57.5336C373.446 58.73 375.274 59.4445 377.101 59.4445C379.054 59.4445 380.898 58.3561 381.646 57.0268C384.903 57.7579 387.553 54.8001 386.714 52.1747V52.183Z" fill="#42C87F"/>
<path d="M386.888 41.5244C386.888 33.5069 380.383 27.0098 372.366 27.0098C364.348 27.0098 357.843 33.5069 357.834 41.5327C355.392 41.6988 353.464 43.7261 353.464 46.2103C353.464 48.6944 355.566 50.9044 358.158 50.9044C359.089 50.9044 359.953 50.6303 360.684 50.165C362.479 52.591 365.004 54.4521 367.954 55.3826V65.3858H376.794V55.3743C379.743 54.4272 382.277 52.5578 384.072 50.1152C384.82 50.6137 385.717 50.9044 386.681 50.9044C389.273 50.9044 391.375 48.8024 391.375 46.2103C391.375 43.6181 389.381 41.6324 386.888 41.5244Z" fill="#F4EFD5"/>
<path d="M372.341 52.2248C372.283 52.2248 372.233 52.2248 372.175 52.2248C370.073 52.1666 368.394 51.0533 367.796 49.3169C367.655 48.9015 367.871 48.4445 368.286 48.3033C368.702 48.162 369.159 48.378 369.3 48.7935C369.757 50.1062 371.103 50.6047 372.216 50.6296C373.487 50.6628 375.016 50.0979 375.565 48.7519C375.731 48.3448 376.196 48.1454 376.603 48.3116C377.01 48.4777 377.21 48.943 377.043 49.3501C376.329 51.1032 374.493 52.2248 372.349 52.2248H372.341Z" fill="#42C87F"/>
<path d="M376.005 46.1022C376.808 46.1022 377.459 45.4513 377.459 44.6483C377.459 43.8453 376.808 43.1943 376.005 43.1943C375.202 43.1943 374.551 43.8453 374.551 44.6483C374.551 45.4513 375.202 46.1022 376.005 46.1022Z" fill="#42C87F"/>
<path d="M368.752 46.1022C369.555 46.1022 370.206 45.4513 370.206 44.6483C370.206 43.8453 369.555 43.1943 368.752 43.1943C367.949 43.1943 367.298 43.8453 367.298 44.6483C367.298 45.4513 367.949 46.1022 368.752 46.1022Z" fill="#42C87F"/>
<path d="M357.835 41.5321C357.835 41.5321 369.283 44.8388 374.692 34.9104C374.692 34.9104 376.138 45.1379 385.883 46.7996C388.8 44.6976 392.198 28.3302 374.883 24.9155C368.361 23.8853 356.156 27.3914 357.843 41.5321H357.835Z" fill="#42C87F"/>
<g opacity="0.7">
<path d="M376.811 61.4142C376.811 61.4142 376.52 65.3689 372.424 65.3856C367.962 65.3856 367.979 61.2812 367.979 61.2812C359.637 63.5577 351.462 72.5556 349.56 80.9886C355.708 86.2311 363.667 89.3966 372.374 89.3966C381.081 89.3966 389.049 86.2228 395.197 80.9802C392.007 71.4008 385.767 64.4467 376.811 61.4142Z" fill="url(#paint24_linear_2556_18261)"/>
<path d="M376.811 61.4142C376.811 61.4142 376.52 65.3689 372.424 65.3856C367.962 65.3856 367.979 61.2812 367.979 61.2812C359.637 63.5577 351.462 72.5556 349.56 80.9886C355.708 86.2311 363.667 89.3966 372.374 89.3966C381.081 89.3966 389.049 86.2228 395.197 80.9802C392.007 71.4008 385.767 64.4467 376.811 61.4142Z" fill="#42C87F"/>
</g>
<defs>
<linearGradient id="paint0_linear_2556_18261" x1="81.9116" y1="153.632" x2="99.145" y2="188.567" gradientUnits="userSpaceOnUse">
<stop stop-color="#6FDBA1"/>
<stop offset="1" stop-color="#64D196"/>
</linearGradient>
<linearGradient id="paint1_linear_2556_18261" x1="16.0554" y1="138.608" x2="50.0125" y2="144.214" gradientUnits="userSpaceOnUse">
<stop stop-color="#F4EFD4"/>
<stop offset="1" stop-color="#C7EAD1"/>
</linearGradient>
<linearGradient id="paint2_linear_2556_18261" x1="181.49" y1="127" x2="211.688" y2="165.006" gradientUnits="userSpaceOnUse">
<stop stop-color="#C7EAD1"/>
<stop offset="1" stop-color="white"/>
</linearGradient>
<linearGradient id="paint3_linear_2556_18261" x1="180.888" y1="146.194" x2="300.998" y2="241.352" gradientUnits="userSpaceOnUse">
<stop stop-color="#6FDBA1"/>
<stop offset="1" stop-color="#64D196"/>
</linearGradient>
<linearGradient id="paint4_linear_2556_18261" x1="30.8981" y1="256.76" x2="59.4014" y2="258.156" gradientUnits="userSpaceOnUse">
<stop stop-color="#9EDBB7"/>
<stop offset="1" stop-color="#F7F3D5"/>
</linearGradient>
<linearGradient id="paint5_linear_2556_18261" x1="27.3681" y1="209.974" x2="39.4267" y2="218.331" gradientUnits="userSpaceOnUse">
<stop stop-color="#7FE9B0"/>
<stop offset="1" stop-color="#4DBC80"/>
</linearGradient>
<linearGradient id="paint6_linear_2556_18261" x1="57.241" y1="221.884" x2="19.7169" y2="236.081" gradientUnits="userSpaceOnUse">
<stop stop-color="#F4EFD4"/>
<stop offset="1" stop-color="#9BDDB7"/>
</linearGradient>
<linearGradient id="paint7_linear_2556_18261" x1="57.2237" y1="238.057" x2="20.2114" y2="256.737" gradientUnits="userSpaceOnUse">
<stop stop-color="#7FE2A9"/>
<stop offset="1" stop-color="#49B276"/>
</linearGradient>
<linearGradient id="paint8_linear_2556_18261" x1="50.0096" y1="238.194" x2="205.313" y2="295.569" gradientUnits="userSpaceOnUse">
<stop stop-color="#68D399"/>
<stop offset="0.555895" stop-color="#4DBC80"/>
</linearGradient>
<linearGradient id="paint9_linear_2556_18261" x1="269.51" y1="286.496" x2="269.51" y2="210.996" gradientUnits="userSpaceOnUse">
<stop stop-color="#4DBC80"/>
<stop offset="1" stop-color="#68D399"/>
</linearGradient>
<linearGradient id="paint10_linear_2556_18261" x1="323.065" y1="250.112" x2="328.786" y2="271.331" gradientUnits="userSpaceOnUse">
<stop stop-color="#6FDBA1"/>
<stop offset="1" stop-color="#64D196"/>
</linearGradient>
<linearGradient id="paint11_linear_2556_18261" x1="360.69" y1="256.86" x2="316.691" y2="256.604" gradientUnits="userSpaceOnUse">
<stop stop-color="#7FE9B0"/>
<stop offset="1" stop-color="#4DBC80"/>
</linearGradient>
<linearGradient id="paint12_linear_2556_18261" x1="285.69" y1="218.86" x2="374.19" y2="218.806" gradientUnits="userSpaceOnUse">
<stop offset="0.394211" stop-color="#F7F3D5"/>
<stop offset="1" stop-color="#9EDBB7"/>
</linearGradient>
<linearGradient id="paint13_linear_2556_18261" x1="356.985" y1="225.016" x2="340.459" y2="210.257" gradientUnits="userSpaceOnUse">
<stop stop-color="#6FDBA1"/>
<stop offset="1" stop-color="#64D196"/>
</linearGradient>
<linearGradient id="paint14_linear_2556_18261" x1="354.911" y1="220.226" x2="317.898" y2="238.905" gradientUnits="userSpaceOnUse">
<stop stop-color="#7FE2A9"/>
<stop offset="1" stop-color="#49B276"/>
</linearGradient>
<linearGradient id="paint15_linear_2556_18261" x1="356.19" y1="232.86" x2="305.031" y2="267.627" gradientUnits="userSpaceOnUse">
<stop stop-color="#F7F3D5"/>
<stop offset="1" stop-color="#9EDBB7"/>
</linearGradient>
<linearGradient id="paint16_linear_2556_18261" x1="-8.5" y1="54.1982" x2="146.803" y2="111.573" gradientUnits="userSpaceOnUse">
<stop stop-color="#68D399"/>
<stop offset="0.555895" stop-color="#4DBC80"/>
</linearGradient>
<linearGradient id="paint17_linear_2556_18261" x1="211" y1="102.5" x2="211" y2="27" gradientUnits="userSpaceOnUse">
<stop stop-color="#4DBC80"/>
<stop offset="1" stop-color="#68D399"/>
</linearGradient>
<linearGradient id="paint18_linear_2556_18261" x1="289.18" y1="-22.3018" x2="335.297" y2="36.5783" gradientUnits="userSpaceOnUse">
<stop stop-color="#F4EFD4"/>
<stop offset="1" stop-color="#C7EAD1"/>
</linearGradient>
<linearGradient id="paint19_linear_2556_18261" x1="310.364" y1="66.2061" x2="291.809" y2="45.9615" gradientUnits="userSpaceOnUse">
<stop stop-color="#68D399"/>
<stop offset="1" stop-color="#4DBC80"/>
</linearGradient>
<linearGradient id="paint20_linear_2556_18261" x1="293.484" y1="51.7798" x2="297.236" y2="56.4661" gradientUnits="userSpaceOnUse">
<stop stop-color="#6FDBA1"/>
<stop offset="1" stop-color="#64D196"/>
</linearGradient>
<linearGradient id="paint21_linear_2556_18261" x1="281.089" y1="51.7798" x2="284.841" y2="56.4661" gradientUnits="userSpaceOnUse">
<stop stop-color="#6FDBA1"/>
<stop offset="1" stop-color="#64D196"/>
</linearGradient>
<linearGradient id="paint22_linear_2556_18261" x1="286.873" y1="58.3902" x2="290.626" y2="63.0764" gradientUnits="userSpaceOnUse">
<stop stop-color="#6FDBA1"/>
<stop offset="1" stop-color="#64D196"/>
</linearGradient>
<linearGradient id="paint23_linear_2556_18261" x1="264.597" y1="66.2083" x2="277.744" y2="58.4085" gradientUnits="userSpaceOnUse">
<stop stop-color="#68D399"/>
<stop offset="1" stop-color="#4DBC80"/>
</linearGradient>
<linearGradient id="paint24_linear_2556_18261" x1="409.969" y1="70.3124" x2="340.155" y2="79.385" gradientUnits="userSpaceOnUse">
<stop stop-color="#68D399"/>
<stop offset="1" stop-color="#4DBC80"/>
</linearGradient>
<clipPath id="clip0_2556_18261">
<rect width="60.18" height="60.99" fill="white" transform="translate(239.51 207.699)"/>
</clipPath>
<clipPath id="clip1_2556_18261">
<rect width="60.18" height="60.99" fill="white" transform="translate(181 23.7031)"/>
</clipPath>
</defs>
</svg>
